<?xml version="1.0"?>
<svg xmlns="http://www.w3.org/2000/svg" xmlns:xlink="http://www.w3.org/1999/xlink" version="1.1" id="Capa_1" x="0px" y="0px" viewBox="0 0 512 512" style="enable-background:new 0 0 512 512;" xml:space="preserve" width="512px" height="512px" class=""><g><path style="fill:#5E72E4" d="M480,0H32C14.368,0,0,14.368,0,32v352c0,17.664,14.368,32,32,32h136.512l75.2,90.24  c3.04,3.68,7.552,5.76,12.288,5.76s9.248-2.08,12.288-5.76l75.2-90.24H480c17.664,0,32-14.336,32-32V32C512,14.368,497.664,0,480,0z  " data-original="#2196F3" class="" data-old_color="#2196F3"/><g>
	<circle style="fill:#FFFFFF" cx="256" cy="128" r="64" data-original="#FAFAFA" class="active-path" data-old_color="#FAFAFA"/>
	<path style="fill:#FFFFFF" d="M272,224h-32c-44.096,0-80,35.904-80,80c0,8.832,7.168,16,16,16h160c8.832,0,16-7.168,16-16   C352,259.904,316.128,224,272,224z" data-original="#FAFAFA" class="active-path" data-old_color="#FAFAFA"/>
</g></g> </svg>
